<?xml version="1.0" encoding="iso-8859-1"?>
<!-- Generator: Adobe Illustrator 19.0.0, SVG Export Plug-In . SVG Version: 6.00 Build 0)  -->
<svg version="1.1" id="Layer_1" xmlns="http://www.w3.org/2000/svg" xmlns:xlink="http://www.w3.org/1999/xlink" x="0px" y="0px"
	 viewBox="0 0 511.999 511.999" style="enable-background:new 0 0 511.999 511.999;" xml:space="preserve">
<path style="fill:#EBEBD3;" d="M81.674,477.718c-2.475-0.34-4.638-1.598-6.13-3.546c-1.475-1.924-2.128-4.31-1.843-6.719
	l36.376-274.617c0.617-4.591,4.561-8.04,9.173-8.04h0.627l310.452,41.126c2.475,0.338,4.644,1.599,6.138,3.557
	c1.505,1.954,2.156,4.41,1.812,6.887l-23.255,175.553l-133.181,92.314L81.674,477.718z"/>
<g>
	<path style="fill:#9B9A84;" d="M294.002,404.146c0.315-2.455,1.569-4.635,3.538-6.148c1.603-1.234,3.605-1.916,5.628-1.916h0.707
		l0.601,0.093l109.976,14.567l-133.975,95.491L294.002,404.146z"/>
	<path style="fill:#9B9A84;" d="M270.387,237.631c-12.322,0-22.346-11.267-22.346-25.116V97.519h44.692v114.996
		C292.733,226.364,282.709,237.631,270.387,237.631z"/>
</g>
<path style="fill:#DDDCC5;" d="M248.041,201.773v38.162c0,13.849,10.024,25.116,22.346,25.116c12.322,0,22.346-11.267,22.346-25.116
	v-32.242L248.041,201.773z"/>
<path style="fill:#8E8C79;" d="M267.74,176.983V97.519h-19.699v114.996c0,13.139,9.026,23.947,20.473,25.021
	c0.619,0.051,1.24,0.095,1.873,0.095c0.632,0,1.254-0.044,1.873-0.095c11.448-1.074,20.473-11.881,20.473-25.021v-13.357
	c-0.87,0.104-1.75,0.171-2.647,0.171C277.765,199.329,267.74,189.305,267.74,176.983z"/>
<path style="fill:#C13530;" d="M270.387,117.726c-30.353,0-55.047-24.694-55.047-55.047s24.694-55.047,55.047-55.047
	s55.047,24.694,55.047,55.047S300.74,117.726,270.387,117.726z"/>
<path style="fill:#B22626;" d="M299.198,79.008c-30.353,0-55.047-24.694-55.047-55.047c0-3.471,0.338-6.861,0.955-10.155
	c-17.664,9.175-29.766,27.631-29.766,48.873c0,30.353,24.694,55.047,55.047,55.047c26.883,0,49.312-19.375,54.092-44.892
	C316.902,76.769,308.31,79.008,299.198,79.008z"/>
<path d="M425.874,317.681L425.874,317.681c-4.101,0-7.566,3.037-8.104,7.102l-10.245,77.345l-102.13-13.529
	c-9.225-1.223-17.733,5.292-18.955,14.52l-12.096,91.323l-191.524-25.37c-0.055-0.008-0.219-0.029-0.353-0.205
	c-0.134-0.175-0.112-0.34-0.106-0.395l36.359-274.494c0.039-0.293,0.316-0.5,0.6-0.46l121.092,16.04v5.085
	c0,16.537,13.119,30.44,29.655,30.614c15.931,0.168,29.067-12.163,30.208-27.77l128.908,17.075c0.054,0.008,0.218,0.028,0.352,0.205
	c0.135,0.175,0.113,0.341,0.106,0.395l-5.96,44.996c-0.649,4.899,3.163,9.249,8.104,9.249l0,0c4.101,0,7.566-3.037,8.104-7.102
	l5.96-44.996c1.222-9.229-5.292-17.733-14.52-18.955l-130.965-17.349v-83.299c20.258-11.079,33.766-33.016,32.636-57.932
	c-1.457-32.116-27.504-58.202-59.618-59.705c-35.917-1.681-65.672,27.054-65.672,62.608c0,23.708,13.234,44.383,32.701,55.03v75.358
	L121.468,177.31c-9.247-1.226-17.733,5.291-18.956,14.52L66.153,466.324c-0.593,4.471,0.591,8.906,3.334,12.486
	c2.744,3.58,6.716,5.878,11.187,6.469l197.766,26.197c0.689,0.092,1.376,0.135,2.06,0.142c0.786,0.243,1.601,0.38,2.425,0.38
	c1.642,0,3.298-0.493,4.738-1.518l2.793-1.99c0.001-0.001,0.002-0.001,0.003-0.002l60.179-42.893l68.854-49.075
	c2.387-1.702,3.576-4.451,3.405-7.176c0.192-0.708,0.353-1.426,0.451-2.16l10.631-80.258
	C434.627,322.031,430.815,317.681,425.874,317.681z M284.013,215.285c0,7.514-6.112,13.626-13.626,13.626
	s-13.626-6.112-13.626-13.626v-12.612c0.002-0.063-0.001-0.125,0-0.189v-78.637c4.39,0.977,8.946,1.51,13.626,1.51
	s9.236-0.532,13.626-1.51V215.285z M224.06,62.679c0-25.545,20.782-46.327,46.327-46.327s46.327,20.782,46.327,46.327
	s-20.782,46.327-46.327,46.327S224.06,88.224,224.06,62.679z M291.757,487.484l10.892-82.217c0.007-0.055,0.028-0.219,0.204-0.353
	c0.176-0.135,0.341-0.113,0.393-0.106l88.129,11.674L291.757,487.484z"/>
<path d="M339.912,285.121L167.016,262.22c-4.463-0.596-8.585,2.554-9.177,7.031c-0.593,4.476,2.555,8.585,7.031,9.178
	l172.895,22.902c0.365,0.048,0.726,0.072,1.085,0.072c4.038,0,7.55-2.991,8.094-7.103
	C347.536,289.823,344.388,285.714,339.912,285.121z"/>
<path d="M332.756,339.152l-172.897-22.903c-4.48-0.598-8.586,2.554-9.178,7.031c-0.593,4.476,2.555,8.585,7.03,9.178l172.897,22.903
	c0.365,0.048,0.726,0.072,1.085,0.072c4.038,0,7.55-2.991,8.094-7.103C340.379,343.854,337.232,339.744,332.756,339.152z"/>
<g>
</g>
<g>
</g>
<g>
</g>
<g>
</g>
<g>
</g>
<g>
</g>
<g>
</g>
<g>
</g>
<g>
</g>
<g>
</g>
<g>
</g>
<g>
</g>
<g>
</g>
<g>
</g>
<g>
</g>
</svg>
